STARTFONT 2.1
FONT -*-04b24-Medium-R-Normal--24-180-96-96-c-11--fontspecific
SIZE 18 96 96
FONTBOUNDINGBOX 16 21 0 -3
COMMENT "Generated by fontforge, http://fontforge.sourceforge.net"
COMMENT ""
COMMENT "This file has been produced by ttf2bdf written by Subhabrata Biswas"
COMMENT ""
COMMENT "For comments, questions, bug reports, send a mail to"
COMMENT "subhabrata.biswas@usa.net"
COMMENT ""
STARTPROPERTIES 15
FOUNDRY "Misc"
FAMILY_NAME "04b24"
WEIGHT_NAME "Medium"
SLANT "R"
SETWIDTH_NAME "Normal"
PIXEL_SIZE 12
POINT_SIZE 180
RESOLUTION_X 96
RESOLUTION_Y 96
SPACING "C"
CHARSET_ENCODING "fontspecific"
FONT_ASCENT 18
FONT_DESCENT 3
DEFAULT_CHAR 31
COPYRIGHT "You may wish to put your copyright here"
ENDPROPERTIES
CHARS 226
STARTCHAR C0030
ENCODING 30
SWIDTH 500 0
DWIDTH 12 0
BBX 9 18 1 0
BITMAP
FF80
8180
8180
8180
8180
8180
8180
8180
8180
8180
8180
8180
8180
8180
8180
8180
FF80
FF80
ENDCHAR
STARTCHAR C0031
ENCODING 31
SWIDTH 500 0
DWIDTH 12 0
BBX 9 18 1 0
BITMAP
FF80
8180
8180
8180
8180
8180
8180
8180
8180
8180
8180
8180
8180
8180
8180
8180
FF80
FF80
ENDCHAR
STARTCHAR C0032-
ENCODING 32
SWIDTH 250 0
DWIDTH 6 0
BBX 1 1 0 -1
BITMAP
00
ENDCHAR
STARTCHAR C0033-!
ENCODING 33
SWIDTH 250 0
DWIDTH 6 0
BBX 3 15 1 0
BITMAP
E0
E0
E0
E0
E0
E0
E0
E0
E0
00
00
00
E0
E0
E0
ENDCHAR
STARTCHAR C0034-"
ENCODING 34
SWIDTH 500 0
DWIDTH 12 0
BBX 9 6 1 9
BITMAP
E380
E380
E380
E380
E380
E380
ENDCHAR
STARTCHAR C0035-#
ENCODING 35
SWIDTH 500 0
DWIDTH 12 0
BBX 9 15 1 0
BITMAP
1C00
1C00
1C00
FF80
FF80
FF80
1C00
1C00
1C00
FF80
FF80
FF80
1C00
1C00
1C00
ENDCHAR
STARTCHAR C0036-$
ENCODING 36
SWIDTH 500 0
DWIDTH 12 0
BBX 9 15 1 0
BITMAP
1F80
1F80
1F80
FC00
FC00
FC00
1C00
1C00
1C00
1F80
1F80
1F80
FC00
FC00
FC00
ENDCHAR
STARTCHAR C0037-
ENCODING 37
SWIDTH 500 0
DWIDTH 12 0
BBX 9 15 1 0
BITMAP
E380
E380
E380
0380
0380
0380
1C00
1C00
1C00
E000
E000
E000
E380
E380
E380
ENDCHAR
STARTCHAR C0038-&
ENCODING 38
SWIDTH 625 0
DWIDTH 15 0
BBX 12 15 1 0
BITMAP
1F80
1F80
1F80
E000
E000
E000
1FF0
1FF0
1FF0
E380
E380
E380
1F80
1F80
1F80
ENDCHAR
STARTCHAR C0039-'
ENCODING 39
SWIDTH 250 0
DWIDTH 6 0
BBX 3 6 1 9
BITMAP
E0
E0
E0
E0
E0
E0
ENDCHAR
STARTCHAR C0040-
ENCODING 40
SWIDTH 375 0
DWIDTH 9 0
BBX 6 15 1 0
BITMAP
1C
1C
1C
E0
E0
E0
E0
E0
E0
E0
E0
E0
1C
1C
1C
ENDCHAR
STARTCHAR C0041-
ENCODING 41
SWIDTH 375 0
DWIDTH 9 0
BBX 6 15 1 0
BITMAP
E0
E0
E0
1C
1C
1C
1C
1C
1C
1C
1C
1C
E0
E0
E0
ENDCHAR
STARTCHAR C0042-*
ENCODING 42
SWIDTH 500 0
DWIDTH 12 0
BBX 9 9 1 6
BITMAP
E380
E380
E380
1C00
1C00
1C00
E380
E380
E380
ENDCHAR
STARTCHAR C0043-+
ENCODING 43
SWIDTH 500 0
DWIDTH 12 0
BBX 9 9 1 3
BITMAP
1C00
1C00
1C00
FF80
FF80
FF80
1C00
1C00
1C00
ENDCHAR
STARTCHAR C0044-,
ENCODING 44
SWIDTH 375 0
DWIDTH 9 0
BBX 6 6 1 -3
BITMAP
1C
1C
1C
E0
E0
E0
ENDCHAR
STARTCHAR C0045--
ENCODING 45
SWIDTH 500 0
DWIDTH 12 0
BBX 9 3 1 6
BITMAP
FF80
FF80
FF80
ENDCHAR
STARTCHAR C0046-.
ENCODING 46
SWIDTH 250 0
DWIDTH 6 0
BBX 3 3 1 0
BITMAP
E0
E0
E0
ENDCHAR
STARTCHAR C0047-
ENCODING 47
SWIDTH 500 0
DWIDTH 12 0
BBX 9 15 1 0
BITMAP
0380
0380
0380
0380
0380
0380
1C00
1C00
1C00
E000
E000
E000
E000
E000
E000
ENDCHAR
STARTCHAR C0048-0
ENCODING 48
SWIDTH 631 0
DWIDTH 12 0
BBX 9 15 1 0
BITMAP
FF80
FF80
FF80
E380
E380
E380
E380
E380
E380
E380
E380
E380
FF80
FF80
FF80
ENDCHAR
STARTCHAR C0049-1
ENCODING 49
SWIDTH 473 0
DWIDTH 9 0
BBX 6 15 1 0
BITMAP
FC
FC
FC
1C
1C
1C
1C
1C
1C
1C
1C
1C
1C
1C
1C
ENDCHAR
STARTCHAR C0050-2
ENCODING 50
SWIDTH 631 0
DWIDTH 12 0
BBX 9 15 1 0
BITMAP
FF80
FF80
FF80
0380
0380
0380
FF80
FF80
FF80
E000
E000
E000
FF80
FF80
FF80
ENDCHAR
STARTCHAR C0051-3
ENCODING 51
SWIDTH 631 0
DWIDTH 12 0
BBX 9 15 1 0
BITMAP
FF80
FF80
FF80
0380
0380
0380
FF80
FF80
FF80
0380
0380
0380
FF80
FF80
FF80
ENDCHAR
STARTCHAR C0052-4
ENCODING 52
SWIDTH 631 0
DWIDTH 12 0
BBX 9 15 1 0
BITMAP
E380
E380
E380
E380
E380
E380
E380
E380
E380
FF80
FF80
FF80
0380
0380
0380
ENDCHAR
STARTCHAR C0053-5
ENCODING 53
SWIDTH 631 0
DWIDTH 12 0
BBX 9 15 1 0
BITMAP
FF80
FF80
FF80
E000
E000
E000
FF80
FF80
FF80
0380
0380
0380
FF80
FF80
FF80
ENDCHAR
STARTCHAR C0054-6
ENCODING 54
SWIDTH 631 0
DWIDTH 12 0
BBX 9 15 1 0
BITMAP
FF80
FF80
FF80
E000
E000
E000
FF80
FF80
FF80
E380
E380
E380
FF80
FF80
FF80
ENDCHAR
STARTCHAR C0055-7
ENCODING 55
SWIDTH 631 0
DWIDTH 12 0
BBX 9 15 1 0
BITMAP
FF80
FF80
FF80
0380
0380
0380
0380
0780
0F80
1F00
3E00
7C00
F800
F000
E000
ENDCHAR
STARTCHAR C0056-8
ENCODING 56
SWIDTH 631 0
DWIDTH 12 0
BBX 9 15 1 0
BITMAP
FF80
FF80
FF80
E380
E380
E380
FF80
FF80
FF80
E380
E380
E380
FF80
FF80
FF80
ENDCHAR
STARTCHAR C0057-9
ENCODING 57
SWIDTH 631 0
DWIDTH 12 0
BBX 9 15 1 0
BITMAP
FF80
FF80
FF80
E380
E380
E380
E380
FF80
FF80
FF80
0380
0380
0380
0380
0380
ENDCHAR
STARTCHAR C0058-:
ENCODING 58
SWIDTH 250 0
DWIDTH 6 0
BBX 3 9 1 3
BITMAP
E0
E0
E0
00
00
00
E0
E0
E0
ENDCHAR
STARTCHAR C0059-;
ENCODING 59
SWIDTH 250 0
DWIDTH 6 0
BBX 3 12 1 0
BITMAP
E0
E0
E0
00
00
00
E0
E0
E0
E0
E0
E0
ENDCHAR
STARTCHAR C0060-
ENCODING 60
SWIDTH 500 0
DWIDTH 12 0
BBX 9 15 1 0
BITMAP
0380
0380
0380
1C00
1C00
1C00
E000
E000
E000
1C00
1C00
1C00
0380
0380
0380
ENDCHAR
STARTCHAR C0061-=
ENCODING 61
SWIDTH 500 0
DWIDTH 12 0
BBX 9 9 1 3
BITMAP
FF80
FF80
FF80
0000
0000
0000
FF80
FF80
FF80
ENDCHAR
STARTCHAR C0062-
ENCODING 62
SWIDTH 500 0
DWIDTH 12 0
BBX 9 15 1 0
BITMAP
E000
E000
E000
1C00
1C00
1C00
0380
0380
0380
1C00
1C00
1C00
E000
E000
E000
ENDCHAR
STARTCHAR C0063-?
ENCODING 63
SWIDTH 500 0
DWIDTH 12 0
BBX 9 15 1 0
BITMAP
FF80
FF80
FF80
0380
0380
0380
1F80
1F80
1F80
0000
0000
0000
1C00
1C00
1C00
ENDCHAR
STARTCHAR C0064-@
ENCODING 64
SWIDTH 750 0
DWIDTH 18 0
BBX 15 15 1 0
BITMAP
1FF0
1FF0
1FF0
E00E
E00E
E00E
FF8E
FF8E
FF8E
E38E
E38E
E38E
1F80
1F80
1F80
ENDCHAR
STARTCHAR C0065-A
ENCODING 65
SWIDTH 500 0
DWIDTH 12 0
BBX 9 15 1 0
BITMAP
FF80
FF80
FF80
E380
E380
E380
E380
E380
E380
FF80
FF80
FF80
E380
E380
E380
ENDCHAR
STARTCHAR C0066-B
ENCODING 66
SWIDTH 500 0
DWIDTH 12 0
BBX 9 15 1 0
BITMAP
FF80
FF80
FF80
E380
E380
E380
FF80
FF80
FF80
E380
E380
E380
FF80
FF80
FF80
ENDCHAR
STARTCHAR C0067-C
ENCODING 67
SWIDTH 500 0
DWIDTH 12 0
BBX 9 15 1 0
BITMAP
FF80
FF80
FF80
E000
E000
E000
E000
E000
E000
E000
E000
E000
FF80
FF80
FF80
ENDCHAR
STARTCHAR C0068-D
ENCODING 68
SWIDTH 500 0
DWIDTH 12 0
BBX 9 15 1 0
BITMAP
FC00
FC00
FC00
E380
E380
E380
E380
E380
E380
E380
E380
E380
FF80
FF80
FF80
ENDCHAR
STARTCHAR C0069-E
ENCODING 69
SWIDTH 500 0
DWIDTH 12 0
BBX 9 15 1 0
BITMAP
FF80
FF80
FF80
E000
E000
E000
FF80
FF80
FF80
E000
E000
E000
FF80
FF80
FF80
ENDCHAR
STARTCHAR C0070-F
ENCODING 70
SWIDTH 500 0
DWIDTH 12 0
BBX 9 15 1 0
BITMAP
FF80
FF80
FF80
E000
E000
E000
FF80
FF80
FF80
E000
E000
E000
E000
E000
E000
ENDCHAR
STARTCHAR C0071-G
ENCODING 71
SWIDTH 500 0
DWIDTH 12 0
BBX 9 15 1 0
BITMAP
FF80
FF80
FF80
E000
E000
E000
E380
E380
E380
E380
E380
E380
FF80
FF80
FF80
ENDCHAR
STARTCHAR C0072-H
ENCODING 72
SWIDTH 500 0
DWIDTH 12 0
BBX 9 15 1 0
BITMAP
E380
E380
E380
E380
E380
E380
FF80
FF80
FF80
E380
E380
E380
E380
E380
E380
ENDCHAR
STARTCHAR C0073-I
ENCODING 73
SWIDTH 250 0
DWIDTH 6 0
BBX 3 15 1 0
BITMAP
E0
E0
E0
E0
E0
E0
E0
E0
E0
E0
E0
E0
E0
E0
E0
ENDCHAR
STARTCHAR C0074-J
ENCODING 74
SWIDTH 500 0
DWIDTH 12 0
BBX 9 15 1 0
BITMAP
0380
0380
0380
0380
0380
0380
E380
E380
E380
E380
E380
E380
FF80
FF80
FF80
ENDCHAR
STARTCHAR C0075-K
ENCODING 75
SWIDTH 500 0
DWIDTH 12 0
BBX 9 15 1 0
BITMAP
E380
E380
E380
E380
E380
E380
FC00
FC00
FC00
E380
E380
E380
E380
E380
E380
ENDCHAR
STARTCHAR C0076-L
ENCODING 76
SWIDTH 500 0
DWIDTH 12 0
BBX 9 15 1 0
BITMAP
E000
E000
E000
E000
E000
E000
E000
E000
E000
E000
E000
E000
FF80
FF80
FF80
ENDCHAR
STARTCHAR C0077-M
ENCODING 77
SWIDTH 500 0
DWIDTH 12 0
BBX 9 15 1 0
BITMAP
E380
E380
E380
FF80
FF80
FF80
E380
E380
E380
E380
E380
E380
E380
E380
E380
ENDCHAR
STARTCHAR C0078-N
ENCODING 78
SWIDTH 500 0
DWIDTH 12 0
BBX 9 15 1 0
BITMAP
FF80
FF80
FF80
E380
E380
E380
E380
E380
E380
E380
E380
E380
E380
E380
E380
ENDCHAR
STARTCHAR C0079-O
ENCODING 79
SWIDTH 500 0
DWIDTH 12 0
BBX 9 15 1 0
BITMAP
FF80
FF80
FF80
E380
E380
E380
E380
E380
E380
E380
E380
E380
FF80
FF80
FF80
ENDCHAR
STARTCHAR C0080-P
ENCODING 80
SWIDTH 500 0
DWIDTH 12 0
BBX 9 15 1 0
BITMAP
FF80
FF80
FF80
E380
E380
E380
E380
E380
E380
FF80
FF80
FF80
E000
E000
E000
ENDCHAR
STARTCHAR C0081-Q
ENCODING 81
SWIDTH 500 0
DWIDTH 12 0
BBX 9 18 1 -3
BITMAP
FF80
FF80
FF80
E380
E380
E380
E380
E380
E380
E380
E380
E380
FF80
FF80
FF80
1C00
1C00
1C00
ENDCHAR
STARTCHAR C0082-R
ENCODING 82
SWIDTH 500 0
DWIDTH 12 0
BBX 9 15 1 0
BITMAP
FF80
FF80
FF80
E380
E380
E380
E380
E380
E380
FC00
FC00
FC00
E380
E380
E380
ENDCHAR
STARTCHAR C0083-S
ENCODING 83
SWIDTH 500 0
DWIDTH 12 0
BBX 9 15 1 0
BITMAP
FF80
FF80
FF80
E000
E000
E000
FF80
FF80
FF80
0380
0380
0380
FF80
FF80
FF80
ENDCHAR
STARTCHAR C0084-T
ENCODING 84
SWIDTH 500 0
DWIDTH 12 0
BBX 9 15 1 0
BITMAP
FF80
FF80
FF80
1C00
1C00
1C00
1C00
1C00
1C00
1C00
1C00
1C00
1C00
1C00
1C00
ENDCHAR
STARTCHAR C0085-U
ENCODING 85
SWIDTH 500 0
DWIDTH 12 0
BBX 9 15 1 0
BITMAP
E380
E380
E380
E380
E380
E380
E380
E380
E380
E380
E380
E380
FF80
FF80
FF80
ENDCHAR
STARTCHAR C0086-V
ENCODING 86
SWIDTH 500 0
DWIDTH 12 0
BBX 9 15 1 0
BITMAP
E380
E380
E380
E380
E380
E380
E380
E380
E380
E380
E380
E380
FC00
FC00
FC00
ENDCHAR
STARTCHAR C0087-W
ENCODING 87
SWIDTH 500 0
DWIDTH 12 0
BBX 9 15 1 0
BITMAP
E380
E380
E380
E380
E380
E380
E380
E380
E380
FF80
FF80
FF80
E380
E380
E380
ENDCHAR
STARTCHAR C0088-X
ENCODING 88
SWIDTH 500 0
DWIDTH 12 0
BBX 9 15 1 0
BITMAP
E380
E380
E380
E380
E380
E380
1C00
1C00
1C00
E380
E380
E380
E380
E380
E380
ENDCHAR
STARTCHAR C0089-Y
ENCODING 89
SWIDTH 500 0
DWIDTH 12 0
BBX 9 15 1 0
BITMAP
E380
E380
E380
E380
E380
E380
1C00
1C00
1C00
1C00
1C00
1C00
1C00
1C00
1C00
ENDCHAR
STARTCHAR C0090-Z
ENCODING 90
SWIDTH 500 0
DWIDTH 12 0
BBX 9 15 1 0
BITMAP
FF80
FF80
FF80
0380
0380
0380
1C00
1C00
1C00
E000
E000
E000
FF80
FF80
FF80
ENDCHAR
STARTCHAR C0091-
ENCODING 91
SWIDTH 375 0
DWIDTH 9 0
BBX 6 15 1 0
BITMAP
FC
FC
FC
E0
E0
E0
E0
E0
E0
E0
E0
E0
FC
FC
FC
ENDCHAR
STARTCHAR C0092-\
ENCODING 92
SWIDTH 500 0
DWIDTH 12 0
BBX 9 15 1 0
BITMAP
E000
E000
E000
E000
E000
E000
1C00
1C00
1C00
0380
0380
0380
0380
0380
0380
ENDCHAR
STARTCHAR C0093-
ENCODING 93
SWIDTH 375 0
DWIDTH 9 0
BBX 6 15 1 0
BITMAP
FC
FC
FC
1C
1C
1C
1C
1C
1C
1C
1C
1C
FC
FC
FC
ENDCHAR
STARTCHAR C0094-^
ENCODING 94
SWIDTH 500 0
DWIDTH 12 0
BBX 9 6 1 9
BITMAP
1C00
1C00
1C00
E380
E380
E380
ENDCHAR
STARTCHAR C0095-_
ENCODING 95
SWIDTH 500 0
DWIDTH 12 0
BBX 9 3 1 0
BITMAP
FF80
FF80
FF80
ENDCHAR
STARTCHAR C0096-`
ENCODING 96
SWIDTH 375 0
DWIDTH 9 0
BBX 6 6 1 9
BITMAP
E0
E0
E0
1C
1C
1C
ENDCHAR
STARTCHAR C0097-a
ENCODING 97
SWIDTH 500 0
DWIDTH 12 0
BBX 9 15 1 0
BITMAP
1C00
1C00
1C00
E380
E380
E380
E380
E380
E380
FF80
FF80
FF80
E380
E380
E380
ENDCHAR
STARTCHAR C0098-b
ENCODING 98
SWIDTH 500 0
DWIDTH 12 0
BBX 9 15 1 0
BITMAP
FC00
FC00
FC00
E380
E380
E380
FC00
FC00
FC00
E380
E380
E380
FC00
FC00
FC00
ENDCHAR
STARTCHAR C0099-c
ENCODING 99
SWIDTH 500 0
DWIDTH 12 0
BBX 9 15 1 0
BITMAP
1F80
1F80
1F80
E000
E000
E000
E000
E000
E000
E000
E000
E000
1F80
1F80
1F80
ENDCHAR
STARTCHAR C0100-d
ENCODING 100
SWIDTH 500 0
DWIDTH 12 0
BBX 9 15 1 0
BITMAP
FC00
FC00
FC00
E380
E380
E380
E380
E380
E380
E380
E380
E380
FC00
FC00
FC00
ENDCHAR
STARTCHAR C0101-e
ENCODING 101
SWIDTH 500 0
DWIDTH 12 0
BBX 9 15 1 0
BITMAP
1F80
1F80
1F80
E000
E000
E000
FF80
FF80
FF80
E000
E000
E000
1F80
1F80
1F80
ENDCHAR
STARTCHAR C0102-f
ENCODING 102
SWIDTH 500 0
DWIDTH 12 0
BBX 9 15 1 0
BITMAP
1F80
1F80
1F80
E000
E000
E000
FF80
FF80
FF80
E000
E000
E000
E000
E000
E000
ENDCHAR
STARTCHAR C0103-g
ENCODING 103
SWIDTH 500 0
DWIDTH 12 0
BBX 9 15 1 0
BITMAP
1F80
1F80
1F80
E000
E000
E000
E380
E380
E380
E380
E380
E380
1F80
1F80
1F80
ENDCHAR
STARTCHAR C0104-h
ENCODING 104
SWIDTH 500 0
DWIDTH 12 0
BBX 9 15 1 0
BITMAP
E380
E380
E380
E380
E380
E380
FF80
FF80
FF80
E380
E380
E380
E380
E380
E380
ENDCHAR
STARTCHAR C0105-i
ENCODING 105
SWIDTH 250 0
DWIDTH 6 0
BBX 3 15 1 0
BITMAP
E0
E0
E0
E0
E0
E0
E0
E0
E0
E0
E0
E0
E0
E0
E0
ENDCHAR
STARTCHAR C0106-j
ENCODING 106
SWIDTH 500 0
DWIDTH 12 0
BBX 9 15 1 0
BITMAP
0380
0380
0380
0380
0380
0380
E380
E380
E380
E380
E380
E380
1C00
1C00
1C00
ENDCHAR
STARTCHAR C0107-k
ENCODING 107
SWIDTH 500 0
DWIDTH 12 0
BBX 9 15 1 0
BITMAP
E380
E380
E380
E380
E380
E380
FC00
FC00
FC00
E380
E380
E380
E380
E380
E380
ENDCHAR
STARTCHAR C0108-l
ENCODING 108
SWIDTH 500 0
DWIDTH 12 0
BBX 9 15 1 0
BITMAP
E000
E000
E000
E000
E000
E000
E000
E000
E000
E000
E000
E000
1F80
1F80
1F80
ENDCHAR
STARTCHAR C0109-m
ENCODING 109
SWIDTH 500 0
DWIDTH 12 0
BBX 9 15 1 0
BITMAP
E380
E380
E380
FF80
FF80
FF80
E380
E380
E380
E380
E380
E380
E380
E380
E380
ENDCHAR
STARTCHAR C0110-n
ENCODING 110
SWIDTH 500 0
DWIDTH 12 0
BBX 9 15 1 0
BITMAP
FC00
FC00
FC00
E380
E380
E380
E380
E380
E380
E380
E380
E380
E380
E380
E380
ENDCHAR
STARTCHAR C0111-o
ENCODING 111
SWIDTH 500 0
DWIDTH 12 0
BBX 9 15 1 0
BITMAP
1C00
1C00
1C00
E380
E380
E380
E380
E380
E380
E380
E380
E380
1C00
1C00
1C00
ENDCHAR
STARTCHAR C0112-p
ENCODING 112
SWIDTH 500 0
DWIDTH 12 0
BBX 9 15 1 0
BITMAP
FC00
FC00
FC00
E380
E380
E380
E380
E380
E380
FC00
FC00
FC00
E000
E000
E000
ENDCHAR
STARTCHAR C0113-q
ENCODING 113
SWIDTH 500 0
DWIDTH 12 0
BBX 9 18 1 -3
BITMAP
1C00
1C00
1C00
E380
E380
E380
E380
E380
E380
E380
E380
E380
1C00
1C00
1C00
1C00
1C00
1C00
ENDCHAR
STARTCHAR C0114-r
ENCODING 114
SWIDTH 500 0
DWIDTH 12 0
BBX 9 15 1 0
BITMAP
FC00
FC00
FC00
E380
E380
E380
E380
E380
E380
FC00
FC00
FC00
E380
E380
E380
ENDCHAR
STARTCHAR C0115-s
ENCODING 115
SWIDTH 500 0
DWIDTH 12 0
BBX 9 15 1 0
BITMAP
1F80
1F80
1F80
E000
E000
E000
1C00
1C00
1C00
0380
0380
0380
FC00
FC00
FC00
ENDCHAR
STARTCHAR C0116-t
ENCODING 116
SWIDTH 500 0
DWIDTH 12 0
BBX 9 15 1 0
BITMAP
FF80
FF80
FF80
1C00
1C00
1C00
1C00
1C00
1C00
1C00
1C00
1C00
1C00
1C00
1C00
ENDCHAR
STARTCHAR C0117-u
ENCODING 117
SWIDTH 500 0
DWIDTH 12 0
BBX 9 15 1 0
BITMAP
E380
E380
E380
E380
E380
E380
E380
E380
E380
E380
E380
E380
1C00
1C00
1C00
ENDCHAR
STARTCHAR C0118-v
ENCODING 118
SWIDTH 500 0
DWIDTH 12 0
BBX 9 15 1 0
BITMAP
E380
E380
E380
E380
E380
E380
E380
E380
E380
E380
E380
E380
FC00
FC00
FC00
ENDCHAR
STARTCHAR C0119-w
ENCODING 119
SWIDTH 500 0
DWIDTH 12 0
BBX 9 15 1 0
BITMAP
E380
E380
E380
E380
E380
E380
E380
E380
E380
FF80
FF80
FF80
E380
E380
E380
ENDCHAR
STARTCHAR C0120-x
ENCODING 120
SWIDTH 500 0
DWIDTH 12 0
BBX 9 15 1 0
BITMAP
E380
E380
E380
E380
E380
E380
1C00
1C00
1C00
E380
E380
E380
E380
E380
E380
ENDCHAR
STARTCHAR C0121-y
ENCODING 121
SWIDTH 500 0
DWIDTH 12 0
BBX 9 15 1 0
BITMAP
E380
E380
E380
E380
E380
E380
1C00
1C00
1C00
1C00
1C00
1C00
1C00
1C00
1C00
ENDCHAR
STARTCHAR C0122-z
ENCODING 122
SWIDTH 500 0
DWIDTH 12 0
BBX 9 15 1 0
BITMAP
FF80
FF80
FF80
0380
0380
0380
1C00
1C00
1C00
E000
E000
E000
FF80
FF80
FF80
ENDCHAR
STARTCHAR C0123-
ENCODING 123
SWIDTH 500 0
DWIDTH 12 0
BBX 9 15 1 0
BITMAP
1F80
1F80
1F80
1C00
1C00
1C00
FC00
FC00
FC00
1C00
1C00
1C00
1F80
1F80
1F80
ENDCHAR
STARTCHAR C0124-|
ENCODING 124
SWIDTH 250 0
DWIDTH 6 0
BBX 3 15 1 0
BITMAP
E0
E0
E0
E0
E0
E0
E0
E0
E0
E0
E0
E0
E0
E0
E0
ENDCHAR
STARTCHAR C0125-
ENCODING 125
SWIDTH 500 0
DWIDTH 12 0
BBX 9 15 1 0
BITMAP
FC00
FC00
FC00
1C00
1C00
1C00
1F80
1F80
1F80
1C00
1C00
1C00
FC00
FC00
FC00
ENDCHAR
STARTCHAR C0126-~
ENCODING 126
SWIDTH 375 0
DWIDTH 9 0
BBX 6 3 1 12
BITMAP
FC
FC
FC
ENDCHAR
STARTCHAR C0127
ENCODING 127
SWIDTH 500 0
DWIDTH 12 0
BBX 9 18 1 0
BITMAP
FF80
8180
8180
8180
8180
8180
8180
8180
8180
8180
8180
8180
8180
8180
8180
8180
FF80
FF80
ENDCHAR
STARTCHAR C0128
ENCODING 128
SWIDTH 500 0
DWIDTH 12 0
BBX 9 18 1 0
BITMAP
FF80
8180
8180
8180
8180
8180
8180
8180
8180
8180
8180
8180
8180
8180
8180
8180
FF80
FF80
ENDCHAR
STARTCHAR C0129
ENCODING 129
SWIDTH 500 0
DWIDTH 12 0
BBX 9 18 1 0
BITMAP
FF80
8180
8180
8180
8180
8180
8180
8180
8180
8180
8180
8180
8180
8180
8180
8180
FF80
FF80
ENDCHAR
STARTCHAR C0130
ENCODING 130
SWIDTH 500 0
DWIDTH 12 0
BBX 9 18 1 0
BITMAP
FF80
8180
8180
8180
8180
8180
8180
8180
8180
8180
8180
8180
8180
8180
8180
8180
FF80
FF80
ENDCHAR
STARTCHAR C0131
ENCODING 131
SWIDTH 500 0
DWIDTH 12 0
BBX 9 18 1 0
BITMAP
FF80
8180
8180
8180
8180
8180
8180
8180
8180
8180
8180
8180
8180
8180
8180
8180
FF80
FF80
ENDCHAR
STARTCHAR C0132
ENCODING 132
SWIDTH 500 0
DWIDTH 12 0
BBX 9 18 1 0
BITMAP
FF80
8180
8180
8180
8180
8180
8180
8180
8180
8180
8180
8180
8180
8180
8180
8180
FF80
FF80
ENDCHAR
STARTCHAR C0133
ENCODING 133
SWIDTH 500 0
DWIDTH 12 0
BBX 9 18 1 0
BITMAP
FF80
8180
8180
8180
8180
8180
8180
8180
8180
8180
8180
8180
8180
8180
8180
8180
FF80
FF80
ENDCHAR
STARTCHAR C0134
ENCODING 134
SWIDTH 500 0
DWIDTH 12 0
BBX 9 18 1 0
BITMAP
FF80
8180
8180
8180
8180
8180
8180
8180
8180
8180
8180
8180
8180
8180
8180
8180
FF80
FF80
ENDCHAR
STARTCHAR C0135
ENCODING 135
SWIDTH 500 0
DWIDTH 12 0
BBX 9 18 1 0
BITMAP
FF80
8180
8180
8180
8180
8180
8180
8180
8180
8180
8180
8180
8180
8180
8180
8180
FF80
FF80
ENDCHAR
STARTCHAR C0136
ENCODING 136
SWIDTH 500 0
DWIDTH 12 0
BBX 9 18 1 0
BITMAP
FF80
8180
8180
8180
8180
8180
8180
8180
8180
8180
8180
8180
8180
8180
8180
8180
FF80
FF80
ENDCHAR
STARTCHAR C0137
ENCODING 137
SWIDTH 500 0
DWIDTH 12 0
BBX 9 18 1 0
BITMAP
FF80
8180
8180
8180
8180
8180
8180
8180
8180
8180
8180
8180
8180
8180
8180
8180
FF80
FF80
ENDCHAR
STARTCHAR C0138
ENCODING 138
SWIDTH 500 0
DWIDTH 12 0
BBX 9 18 1 0
BITMAP
FF80
8180
8180
8180
8180
8180
8180
8180
8180
8180
8180
8180
8180
8180
8180
8180
FF80
FF80
ENDCHAR
STARTCHAR C0139
ENCODING 139
SWIDTH 500 0
DWIDTH 12 0
BBX 9 18 1 0
BITMAP
FF80
8180
8180
8180
8180
8180
8180
8180
8180
8180
8180
8180
8180
8180
8180
8180
FF80
FF80
ENDCHAR
STARTCHAR C0140
ENCODING 140
SWIDTH 500 0
DWIDTH 12 0
BBX 9 18 1 0
BITMAP
FF80
8180
8180
8180
8180
8180
8180
8180
8180
8180
8180
8180
8180
8180
8180
8180
FF80
FF80
ENDCHAR
STARTCHAR C0141
ENCODING 141
SWIDTH 500 0
DWIDTH 12 0
BBX 9 18 1 0
BITMAP
FF80
8180
8180
8180
8180
8180
8180
8180
8180
8180
8180
8180
8180
8180
8180
8180
FF80
FF80
ENDCHAR
STARTCHAR C0142
ENCODING 142
SWIDTH 500 0
DWIDTH 12 0
BBX 9 18 1 0
BITMAP
FF80
8180
8180
8180
8180
8180
8180
8180
8180
8180
8180
8180
8180
8180
8180
8180
FF80
FF80
ENDCHAR
STARTCHAR C0143
ENCODING 143
SWIDTH 500 0
DWIDTH 12 0
BBX 9 18 1 0
BITMAP
FF80
8180
8180
8180
8180
8180
8180
8180
8180
8180
8180
8180
8180
8180
8180
8180
FF80
FF80
ENDCHAR
STARTCHAR C0144
ENCODING 144
SWIDTH 500 0
DWIDTH 12 0
BBX 9 18 1 0
BITMAP
FF80
8180
8180
8180
8180
8180
8180
8180
8180
8180
8180
8180
8180
8180
8180
8180
FF80
FF80
ENDCHAR
STARTCHAR C0145
ENCODING 145
SWIDTH 500 0
DWIDTH 12 0
BBX 9 18 1 0
BITMAP
FF80
8180
8180
8180
8180
8180
8180
8180
8180
8180
8180
8180
8180
8180
8180
8180
FF80
FF80
ENDCHAR
STARTCHAR C0146
ENCODING 146
SWIDTH 500 0
DWIDTH 12 0
BBX 9 18 1 0
BITMAP
FF80
8180
8180
8180
8180
8180
8180
8180
8180
8180
8180
8180
8180
8180
8180
8180
FF80
FF80
ENDCHAR
STARTCHAR C0147
ENCODING 147
SWIDTH 500 0
DWIDTH 12 0
BBX 9 18 1 0
BITMAP
FF80
8180
8180
8180
8180
8180
8180
8180
8180
8180
8180
8180
8180
8180
8180
8180
FF80
FF80
ENDCHAR
STARTCHAR C0148
ENCODING 148
SWIDTH 500 0
DWIDTH 12 0
BBX 9 18 1 0
BITMAP
FF80
8180
8180
8180
8180
8180
8180
8180
8180
8180
8180
8180
8180
8180
8180
8180
FF80
FF80
ENDCHAR
STARTCHAR C0149
ENCODING 149
SWIDTH 500 0
DWIDTH 12 0
BBX 9 15 1 0
BITMAP
1C00
1C00
1C00
E380
E380
E380
1C00
1C00
1C00
E380
E380
E380
1C00
1C00
1C00
ENDCHAR
STARTCHAR C0150
ENCODING 150
SWIDTH 500 0
DWIDTH 12 0
BBX 9 18 1 0
BITMAP
FF80
8180
8180
8180
8180
8180
8180
8180
8180
8180
8180
8180
8180
8180
8180
8180
FF80
FF80
ENDCHAR
STARTCHAR C0151
ENCODING 151
SWIDTH 500 0
DWIDTH 12 0
BBX 9 18 1 0
BITMAP
FF80
8180
8180
8180
8180
8180
8180
8180
8180
8180
8180
8180
8180
8180
8180
8180
FF80
FF80
ENDCHAR
STARTCHAR C0152
ENCODING 152
SWIDTH 500 0
DWIDTH 12 0
BBX 9 18 1 0
BITMAP
FF80
8180
8180
8180
8180
8180
8180
8180
8180
8180
8180
8180
8180
8180
8180
8180
FF80
FF80
ENDCHAR
STARTCHAR C0153
ENCODING 153
SWIDTH 500 0
DWIDTH 12 0
BBX 9 15 1 0
BITMAP
FC00
FC00
FC00
0380
0380
0380
1C00
1C00
1C00
E000
E000
E000
FF80
FF80
FF80
ENDCHAR
STARTCHAR C0154
ENCODING 154
SWIDTH 500 0
DWIDTH 12 0
BBX 9 18 1 0
BITMAP
FF80
8180
8180
8180
8180
8180
8180
8180
8180
8180
8180
8180
8180
8180
8180
8180
FF80
FF80
ENDCHAR
STARTCHAR C0155
ENCODING 155
SWIDTH 500 0
DWIDTH 12 0
BBX 9 18 1 0
BITMAP
FF80
8180
8180
8180
8180
8180
8180
8180
8180
8180
8180
8180
8180
8180
8180
8180
FF80
FF80
ENDCHAR
STARTCHAR C0156
ENCODING 156
SWIDTH 500 0
DWIDTH 12 0
BBX 9 18 1 0
BITMAP
FF80
8180
8180
8180
8180
8180
8180
8180
8180
8180
8180
8180
8180
8180
8180
8180
FF80
FF80
ENDCHAR
STARTCHAR C0157
ENCODING 157
SWIDTH 500 0
DWIDTH 12 0
BBX 9 18 1 0
BITMAP
FF80
8180
8180
8180
8180
8180
8180
8180
8180
8180
8180
8180
8180
8180
8180
8180
FF80
FF80
ENDCHAR
STARTCHAR C0158
ENCODING 158
SWIDTH 500 0
DWIDTH 12 0
BBX 9 18 1 0
BITMAP
FF80
8180
8180
8180
8180
8180
8180
8180
8180
8180
8180
8180
8180
8180
8180
8180
FF80
FF80
ENDCHAR
STARTCHAR C0159
ENCODING 159
SWIDTH 500 0
DWIDTH 12 0
BBX 9 18 1 0
BITMAP
FF80
8180
8180
8180
8180
8180
8180
8180
8180
8180
8180
8180
8180
8180
8180
8180
FF80
FF80
ENDCHAR
STARTCHAR C0160
ENCODING 160
SWIDTH 500 0
DWIDTH 12 0
BBX 9 18 1 0
BITMAP
FF80
8180
8180
8180
8180
8180
8180
8180
8180
8180
8180
8180
8180
8180
8180
8180
FF80
FF80
ENDCHAR
STARTCHAR C0161
ENCODING 161
SWIDTH 375 0
DWIDTH 9 0
BBX 6 15 1 0
BITMAP
E0
E0
E0
1C
1C
1C
1C
1C
1C
1C
1C
1C
1C
1C
1C
ENDCHAR
STARTCHAR C0162
ENCODING 162
SWIDTH 500 0
DWIDTH 12 0
BBX 9 15 1 0
BITMAP
E380
E380
E380
E380
E380
E380
E380
E380
E380
1F80
1F80
1F80
0380
0380
0380
ENDCHAR
STARTCHAR C0163
ENCODING 163
SWIDTH 500 0
DWIDTH 12 0
BBX 9 15 1 0
BITMAP
FC00
FC00
FC00
0380
0380
0380
FC00
FC00
FC00
0380
0380
0380
FC00
FC00
FC00
ENDCHAR
STARTCHAR C0164
ENCODING 164
SWIDTH 500 0
DWIDTH 12 0
BBX 9 18 1 0
BITMAP
FF80
8180
8180
8180
8180
8180
8180
8180
8180
8180
8180
8180
8180
8180
8180
8180
FF80
FF80
ENDCHAR
STARTCHAR C0165
ENCODING 165
SWIDTH 500 0
DWIDTH 12 0
BBX 9 18 1 0
BITMAP
FF80
8180
8180
8180
8180
8180
8180
8180
8180
8180
8180
8180
8180
8180
8180
8180
FF80
FF80
ENDCHAR
STARTCHAR C0166
ENCODING 166
SWIDTH 500 0
DWIDTH 12 0
BBX 9 18 1 0
BITMAP
FF80
8180
8180
8180
8180
8180
8180
8180
8180
8180
8180
8180
8180
8180
8180
8180
FF80
FF80
ENDCHAR
STARTCHAR C0167
ENCODING 167
SWIDTH 500 0
DWIDTH 12 0
BBX 9 15 1 0
BITMAP
E000
E000
E000
FC00
FC00
FC00
E380
E380
E380
E380
E380
E380
1C00
1C00
1C00
ENDCHAR
STARTCHAR C0168
ENCODING 168
SWIDTH 500 0
DWIDTH 12 0
BBX 9 18 1 0
BITMAP
FF80
8180
8180
8180
8180
8180
8180
8180
8180
8180
8180
8180
8180
8180
8180
8180
FF80
FF80
ENDCHAR
STARTCHAR C0169
ENCODING 169
SWIDTH 500 0
DWIDTH 12 0
BBX 9 18 1 0
BITMAP
FF80
8180
8180
8180
8180
8180
8180
8180
8180
8180
8180
8180
8180
8180
8180
8180
FF80
FF80
ENDCHAR
STARTCHAR C0170
ENCODING 170
SWIDTH 500 0
DWIDTH 12 0
BBX 9 15 1 0
BITMAP
1C00
1C00
1C00
E380
E380
E380
E380
E380
E380
1F80
1F80
1F80
0380
0380
0380
ENDCHAR
STARTCHAR C0171
ENCODING 171
SWIDTH 500 0
DWIDTH 12 0
BBX 9 18 1 0
BITMAP
FF80
8180
8180
8180
8180
8180
8180
8180
8180
8180
8180
8180
8180
8180
8180
8180
FF80
FF80
ENDCHAR
STARTCHAR C0172
ENCODING 172
SWIDTH 500 0
DWIDTH 12 0
BBX 9 18 1 0
BITMAP
FF80
8180
8180
8180
8180
8180
8180
8180
8180
8180
8180
8180
8180
8180
8180
8180
FF80
FF80
ENDCHAR
STARTCHAR C0173
ENCODING 173
SWIDTH 500 0
DWIDTH 12 0
BBX 9 18 1 0
BITMAP
FF80
8180
8180
8180
8180
8180
8180
8180
8180
8180
8180
8180
8180
8180
8180
8180
FF80
FF80
ENDCHAR
STARTCHAR C0174
ENCODING 174
SWIDTH 500 0
DWIDTH 12 0
BBX 9 18 1 0
BITMAP
FF80
8180
8180
8180
8180
8180
8180
8180
8180
8180
8180
8180
8180
8180
8180
8180
FF80
FF80
ENDCHAR
STARTCHAR C0175
ENCODING 175
SWIDTH 500 0
DWIDTH 12 0
BBX 9 18 1 0
BITMAP
FF80
8180
8180
8180
8180
8180
8180
8180
8180
8180
8180
8180
8180
8180
8180
8180
FF80
FF80
ENDCHAR
STARTCHAR C0176
ENCODING 176
SWIDTH 500 0
DWIDTH 12 0
BBX 9 18 1 0
BITMAP
FF80
8180
8180
8180
8180
8180
8180
8180
8180
8180
8180
8180
8180
8180
8180
8180
FF80
FF80
ENDCHAR
STARTCHAR C0177
ENCODING 177
SWIDTH 500 0
DWIDTH 12 0
BBX 9 18 1 0
BITMAP
FF80
8180
8180
8180
8180
8180
8180
8180
8180
8180
8180
8180
8180
8180
8180
8180
FF80
FF80
ENDCHAR
STARTCHAR C0178
ENCODING 178
SWIDTH 500 0
DWIDTH 12 0
BBX 9 18 1 0
BITMAP
FF80
8180
8180
8180
8180
8180
8180
8180
8180
8180
8180
8180
8180
8180
8180
8180
FF80
FF80
ENDCHAR
STARTCHAR C0179
ENCODING 179
SWIDTH 500 0
DWIDTH 12 0
BBX 9 18 1 0
BITMAP
FF80
8180
8180
8180
8180
8180
8180
8180
8180
8180
8180
8180
8180
8180
8180
8180
FF80
FF80
ENDCHAR
STARTCHAR C0180
ENCODING 180
SWIDTH 500 0
DWIDTH 12 0
BBX 9 18 1 0
BITMAP
FF80
8180
8180
8180
8180
8180
8180
8180
8180
8180
8180
8180
8180
8180
8180
8180
FF80
FF80
ENDCHAR
STARTCHAR C0181
ENCODING 181
SWIDTH 500 0
DWIDTH 12 0
BBX 9 18 1 0
BITMAP
FF80
8180
8180
8180
8180
8180
8180
8180
8180
8180
8180
8180
8180
8180
8180
8180
FF80
FF80
ENDCHAR
STARTCHAR C0182
ENCODING 182
SWIDTH 500 0
DWIDTH 12 0
BBX 9 15 1 0
BITMAP
FF80
FF80
FF80
0380
0380
0380
0380
0380
0380
1C00
1C00
1C00
E000
E000
E000
ENDCHAR
STARTCHAR C0183
ENCODING 183
SWIDTH 500 0
DWIDTH 12 0
BBX 9 18 1 0
BITMAP
FF80
8180
8180
8180
8180
8180
8180
8180
8180
8180
8180
8180
8180
8180
8180
8180
FF80
FF80
ENDCHAR
STARTCHAR C0184
ENCODING 184
SWIDTH 500 0
DWIDTH 12 0
BBX 9 18 1 0
BITMAP
FF80
8180
8180
8180
8180
8180
8180
8180
8180
8180
8180
8180
8180
8180
8180
8180
FF80
FF80
ENDCHAR
STARTCHAR C0185
ENCODING 185
SWIDTH 500 0
DWIDTH 12 0
BBX 9 18 1 0
BITMAP
FF80
8180
8180
8180
8180
8180
8180
8180
8180
8180
8180
8180
8180
8180
8180
8180
FF80
FF80
ENDCHAR
STARTCHAR C0186
ENCODING 186
SWIDTH 500 0
DWIDTH 12 0
BBX 9 15 1 0
BITMAP
1C00
1C00
1C00
E380
E380
E380
E380
E380
E380
E380
E380
E380
1C00
1C00
1C00
ENDCHAR
STARTCHAR C0187
ENCODING 187
SWIDTH 500 0
DWIDTH 12 0
BBX 9 18 1 0
BITMAP
FF80
8180
8180
8180
8180
8180
8180
8180
8180
8180
8180
8180
8180
8180
8180
8180
FF80
FF80
ENDCHAR
STARTCHAR C0188
ENCODING 188
SWIDTH 500 0
DWIDTH 12 0
BBX 9 18 1 0
BITMAP
FF80
8180
8180
8180
8180
8180
8180
8180
8180
8180
8180
8180
8180
8180
8180
8180
FF80
FF80
ENDCHAR
STARTCHAR C0189
ENCODING 189
SWIDTH 500 0
DWIDTH 12 0
BBX 9 18 1 0
BITMAP
FF80
8180
8180
8180
8180
8180
8180
8180
8180
8180
8180
8180
8180
8180
8180
8180
FF80
FF80
ENDCHAR
STARTCHAR C0190
ENCODING 190
SWIDTH 500 0
DWIDTH 12 0
BBX 9 18 1 0
BITMAP
FF80
8180
8180
8180
8180
8180
8180
8180
8180
8180
8180
8180
8180
8180
8180
8180
FF80
FF80
ENDCHAR
STARTCHAR C0191
ENCODING 191
SWIDTH 500 0
DWIDTH 12 0
BBX 9 18 1 0
BITMAP
FF80
8180
8180
8180
8180
8180
8180
8180
8180
8180
8180
8180
8180
8180
8180
8180
FF80
FF80
ENDCHAR
STARTCHAR C0192
ENCODING 192
SWIDTH 500 0
DWIDTH 12 0
BBX 9 18 1 0
BITMAP
FF80
8180
8180
8180
8180
8180
8180
8180
8180
8180
8180
8180
8180
8180
8180
8180
FF80
FF80
ENDCHAR
STARTCHAR C0193
ENCODING 193
SWIDTH 500 0
DWIDTH 12 0
BBX 9 18 1 0
BITMAP
FF80
8180
8180
8180
8180
8180
8180
8180
8180
8180
8180
8180
8180
8180
8180
8180
FF80
FF80
ENDCHAR
STARTCHAR C0194
ENCODING 194
SWIDTH 500 0
DWIDTH 12 0
BBX 9 18 1 0
BITMAP
FF80
8180
8180
8180
8180
8180
8180
8180
8180
8180
8180
8180
8180
8180
8180
8180
FF80
FF80
ENDCHAR
STARTCHAR C0195
ENCODING 195
SWIDTH 500 0
DWIDTH 12 0
BBX 9 18 1 0
BITMAP
FF80
8180
8180
8180
8180
8180
8180
8180
8180
8180
8180
8180
8180
8180
8180
8180
FF80
FF80
ENDCHAR
STARTCHAR C0196
ENCODING 196
SWIDTH 500 0
DWIDTH 12 0
BBX 9 18 1 0
BITMAP
FF80
8180
8180
8180
8180
8180
8180
8180
8180
8180
8180
8180
8180
8180
8180
8180
FF80
FF80
ENDCHAR
STARTCHAR C0197
ENCODING 197
SWIDTH 500 0
DWIDTH 12 0
BBX 9 18 1 0
BITMAP
FF80
8180
8180
8180
8180
8180
8180
8180
8180
8180
8180
8180
8180
8180
8180
8180
FF80
FF80
ENDCHAR
STARTCHAR C0198
ENCODING 198
SWIDTH 500 0
DWIDTH 12 0
BBX 9 18 1 0
BITMAP
FF80
8180
8180
8180
8180
8180
8180
8180
8180
8180
8180
8180
8180
8180
8180
8180
FF80
FF80
ENDCHAR
STARTCHAR C0199
ENCODING 199
SWIDTH 500 0
DWIDTH 12 0
BBX 9 18 1 0
BITMAP
FF80
8180
8180
8180
8180
8180
8180
8180
8180
8180
8180
8180
8180
8180
8180
8180
FF80
FF80
ENDCHAR
STARTCHAR C0200
ENCODING 200
SWIDTH 500 0
DWIDTH 12 0
BBX 9 18 1 0
BITMAP
FF80
8180
8180
8180
8180
8180
8180
8180
8180
8180
8180
8180
8180
8180
8180
8180
FF80
FF80
ENDCHAR
STARTCHAR C0201
ENCODING 201
SWIDTH 500 0
DWIDTH 12 0
BBX 9 18 1 0
BITMAP
FF80
8180
8180
8180
8180
8180
8180
8180
8180
8180
8180
8180
8180
8180
8180
8180
FF80
FF80
ENDCHAR
STARTCHAR C0202
ENCODING 202
SWIDTH 500 0
DWIDTH 12 0
BBX 9 18 1 0
BITMAP
FF80
8180
8180
8180
8180
8180
8180
8180
8180
8180
8180
8180
8180
8180
8180
8180
FF80
FF80
ENDCHAR
STARTCHAR C0203
ENCODING 203
SWIDTH 500 0
DWIDTH 12 0
BBX 9 18 1 0
BITMAP
FF80
8180
8180
8180
8180
8180
8180
8180
8180
8180
8180
8180
8180
8180
8180
8180
FF80
FF80
ENDCHAR
STARTCHAR C0204
ENCODING 204
SWIDTH 500 0
DWIDTH 12 0
BBX 9 18 1 0
BITMAP
FF80
8180
8180
8180
8180
8180
8180
8180
8180
8180
8180
8180
8180
8180
8180
8180
FF80
FF80
ENDCHAR
STARTCHAR C0205
ENCODING 205
SWIDTH 500 0
DWIDTH 12 0
BBX 9 18 1 0
BITMAP
FF80
8180
8180
8180
8180
8180
8180
8180
8180
8180
8180
8180
8180
8180
8180
8180
FF80
FF80
ENDCHAR
STARTCHAR C0206
ENCODING 206
SWIDTH 500 0
DWIDTH 12 0
BBX 9 18 1 0
BITMAP
FF80
8180
8180
8180
8180
8180
8180
8180
8180
8180
8180
8180
8180
8180
8180
8180
FF80
FF80
ENDCHAR
STARTCHAR C0207
ENCODING 207
SWIDTH 500 0
DWIDTH 12 0
BBX 9 18 1 0
BITMAP
FF80
8180
8180
8180
8180
8180
8180
8180
8180
8180
8180
8180
8180
8180
8180
8180
FF80
FF80
ENDCHAR
STARTCHAR C0208
ENCODING 208
SWIDTH 500 0
DWIDTH 12 0
BBX 9 18 1 0
BITMAP
FF80
8180
8180
8180
8180
8180
8180
8180
8180
8180
8180
8180
8180
8180
8180
8180
FF80
FF80
ENDCHAR
STARTCHAR C0209
ENCODING 209
SWIDTH 500 0
DWIDTH 12 0
BBX 9 18 1 0
BITMAP
FF80
8180
8180
8180
8180
8180
8180
8180
8180
8180
8180
8180
8180
8180
8180
8180
FF80
FF80
ENDCHAR
STARTCHAR C0210
ENCODING 210
SWIDTH 500 0
DWIDTH 12 0
BBX 9 18 1 0
BITMAP
FF80
8180
8180
8180
8180
8180
8180
8180
8180
8180
8180
8180
8180
8180
8180
8180
FF80
FF80
ENDCHAR
STARTCHAR C0211
ENCODING 211
SWIDTH 500 0
DWIDTH 12 0
BBX 9 18 1 0
BITMAP
FF80
8180
8180
8180
8180
8180
8180
8180
8180
8180
8180
8180
8180
8180
8180
8180
FF80
FF80
ENDCHAR
STARTCHAR C0212
ENCODING 212
SWIDTH 500 0
DWIDTH 12 0
BBX 9 18 1 0
BITMAP
FF80
8180
8180
8180
8180
8180
8180
8180
8180
8180
8180
8180
8180
8180
8180
8180
FF80
FF80
ENDCHAR
STARTCHAR C0213
ENCODING 213
SWIDTH 500 0
DWIDTH 12 0
BBX 9 18 1 0
BITMAP
FF80
8180
8180
8180
8180
8180
8180
8180
8180
8180
8180
8180
8180
8180
8180
8180
FF80
FF80
ENDCHAR
STARTCHAR C0214
ENCODING 214
SWIDTH 500 0
DWIDTH 12 0
BBX 9 18 1 0
BITMAP
FF80
8180
8180
8180
8180
8180
8180
8180
8180
8180
8180
8180
8180
8180
8180
8180
FF80
FF80
ENDCHAR
STARTCHAR C0215
ENCODING 215
SWIDTH 500 0
DWIDTH 12 0
BBX 9 18 1 0
BITMAP
FF80
8180
8180
8180
8180
8180
8180
8180
8180
8180
8180
8180
8180
8180
8180
8180
FF80
FF80
ENDCHAR
STARTCHAR C0216
ENCODING 216
SWIDTH 500 0
DWIDTH 12 0
BBX 9 18 1 0
BITMAP
FF80
8180
8180
8180
8180
8180
8180
8180
8180
8180
8180
8180
8180
8180
8180
8180
FF80
FF80
ENDCHAR
STARTCHAR C0217
ENCODING 217
SWIDTH 500 0
DWIDTH 12 0
BBX 9 18 1 0
BITMAP
FF80
8180
8180
8180
8180
8180
8180
8180
8180
8180
8180
8180
8180
8180
8180
8180
FF80
FF80
ENDCHAR
STARTCHAR C0218
ENCODING 218
SWIDTH 500 0
DWIDTH 12 0
BBX 9 18 1 0
BITMAP
FF80
8180
8180
8180
8180
8180
8180
8180
8180
8180
8180
8180
8180
8180
8180
8180
FF80
FF80
ENDCHAR
STARTCHAR C0219
ENCODING 219
SWIDTH 500 0
DWIDTH 12 0
BBX 9 18 1 0
BITMAP
FF80
8180
8180
8180
8180
8180
8180
8180
8180
8180
8180
8180
8180
8180
8180
8180
FF80
FF80
ENDCHAR
STARTCHAR C0220
ENCODING 220
SWIDTH 500 0
DWIDTH 12 0
BBX 9 18 1 0
BITMAP
FF80
8180
8180
8180
8180
8180
8180
8180
8180
8180
8180
8180
8180
8180
8180
8180
FF80
FF80
ENDCHAR
STARTCHAR C0221
ENCODING 221
SWIDTH 500 0
DWIDTH 12 0
BBX 9 18 1 0
BITMAP
FF80
8180
8180
8180
8180
8180
8180
8180
8180
8180
8180
8180
8180
8180
8180
8180
FF80
FF80
ENDCHAR
STARTCHAR C0222
ENCODING 222
SWIDTH 500 0
DWIDTH 12 0
BBX 9 18 1 0
BITMAP
FF80
8180
8180
8180
8180
8180
8180
8180
8180
8180
8180
8180
8180
8180
8180
8180
FF80
FF80
ENDCHAR
STARTCHAR C0223
ENCODING 223
SWIDTH 500 0
DWIDTH 12 0
BBX 9 18 1 0
BITMAP
FF80
8180
8180
8180
8180
8180
8180
8180
8180
8180
8180
8180
8180
8180
8180
8180
FF80
FF80
ENDCHAR
STARTCHAR C0224
ENCODING 224
SWIDTH 500 0
DWIDTH 12 0
BBX 9 18 1 0
BITMAP
FF80
8180
8180
8180
8180
8180
8180
8180
8180
8180
8180
8180
8180
8180
8180
8180
FF80
FF80
ENDCHAR
STARTCHAR C0225
ENCODING 225
SWIDTH 500 0
DWIDTH 12 0
BBX 9 18 1 0
BITMAP
FF80
8180
8180
8180
8180
8180
8180
8180
8180
8180
8180
8180
8180
8180
8180
8180
FF80
FF80
ENDCHAR
STARTCHAR C0226
ENCODING 226
SWIDTH 500 0
DWIDTH 12 0
BBX 9 18 1 0
BITMAP
FF80
8180
8180
8180
8180
8180
8180
8180
8180
8180
8180
8180
8180
8180
8180
8180
FF80
FF80
ENDCHAR
STARTCHAR C0227
ENCODING 227
SWIDTH 500 0
DWIDTH 12 0
BBX 9 18 1 0
BITMAP
FF80
8180
8180
8180
8180
8180
8180
8180
8180
8180
8180
8180
8180
8180
8180
8180
FF80
FF80
ENDCHAR
STARTCHAR C0228
ENCODING 228
SWIDTH 500 0
DWIDTH 12 0
BBX 9 18 1 0
BITMAP
FF80
8180
8180
8180
8180
8180
8180
8180
8180
8180
8180
8180
8180
8180
8180
8180
FF80
FF80
ENDCHAR
STARTCHAR C0229
ENCODING 229
SWIDTH 500 0
DWIDTH 12 0
BBX 9 18 1 0
BITMAP
FF80
8180
8180
8180
8180
8180
8180
8180
8180
8180
8180
8180
8180
8180
8180
8180
FF80
FF80
ENDCHAR
STARTCHAR C0230
ENCODING 230
SWIDTH 500 0
DWIDTH 12 0
BBX 9 18 1 0
BITMAP
FF80
8180
8180
8180
8180
8180
8180
8180
8180
8180
8180
8180
8180
8180
8180
8180
FF80
FF80
ENDCHAR
STARTCHAR C0231
ENCODING 231
SWIDTH 500 0
DWIDTH 12 0
BBX 9 18 1 0
BITMAP
FF80
8180
8180
8180
8180
8180
8180
8180
8180
8180
8180
8180
8180
8180
8180
8180
FF80
FF80
ENDCHAR
STARTCHAR C0232
ENCODING 232
SWIDTH 500 0
DWIDTH 12 0
BBX 9 18 1 0
BITMAP
FF80
8180
8180
8180
8180
8180
8180
8180
8180
8180
8180
8180
8180
8180
8180
8180
FF80
FF80
ENDCHAR
STARTCHAR C0233
ENCODING 233
SWIDTH 500 0
DWIDTH 12 0
BBX 9 18 1 0
BITMAP
FF80
8180
8180
8180
8180
8180
8180
8180
8180
8180
8180
8180
8180
8180
8180
8180
FF80
FF80
ENDCHAR
STARTCHAR C0234
ENCODING 234
SWIDTH 500 0
DWIDTH 12 0
BBX 9 18 1 0
BITMAP
FF80
8180
8180
8180
8180
8180
8180
8180
8180
8180
8180
8180
8180
8180
8180
8180
FF80
FF80
ENDCHAR
STARTCHAR C0235
ENCODING 235
SWIDTH 500 0
DWIDTH 12 0
BBX 9 18 1 0
BITMAP
FF80
8180
8180
8180
8180
8180
8180
8180
8180
8180
8180
8180
8180
8180
8180
8180
FF80
FF80
ENDCHAR
STARTCHAR C0236
ENCODING 236
SWIDTH 500 0
DWIDTH 12 0
BBX 9 18 1 0
BITMAP
FF80
8180
8180
8180
8180
8180
8180
8180
8180
8180
8180
8180
8180
8180
8180
8180
FF80
FF80
ENDCHAR
STARTCHAR C0237
ENCODING 237
SWIDTH 500 0
DWIDTH 12 0
BBX 9 18 1 0
BITMAP
FF80
8180
8180
8180
8180
8180
8180
8180
8180
8180
8180
8180
8180
8180
8180
8180
FF80
FF80
ENDCHAR
STARTCHAR C0238
ENCODING 238
SWIDTH 500 0
DWIDTH 12 0
BBX 9 18 1 0
BITMAP
FF80
8180
8180
8180
8180
8180
8180
8180
8180
8180
8180
8180
8180
8180
8180
8180
FF80
FF80
ENDCHAR
STARTCHAR C0239
ENCODING 239
SWIDTH 500 0
DWIDTH 12 0
BBX 9 18 1 0
BITMAP
FF80
8180
8180
8180
8180
8180
8180
8180
8180
8180
8180
8180
8180
8180
8180
8180
FF80
FF80
ENDCHAR
STARTCHAR C0240
ENCODING 240
SWIDTH 500 0
DWIDTH 12 0
BBX 9 18 1 0
BITMAP
FF80
8180
8180
8180
8180
8180
8180
8180
8180
8180
8180
8180
8180
8180
8180
8180
FF80
FF80
ENDCHAR
STARTCHAR C0241
ENCODING 241
SWIDTH 500 0
DWIDTH 12 0
BBX 9 18 1 0
BITMAP
FF80
8180
8180
8180
8180
8180
8180
8180
8180
8180
8180
8180
8180
8180
8180
8180
FF80
FF80
ENDCHAR
STARTCHAR C0242
ENCODING 242
SWIDTH 500 0
DWIDTH 12 0
BBX 9 18 1 0
BITMAP
FF80
8180
8180
8180
8180
8180
8180
8180
8180
8180
8180
8180
8180
8180
8180
8180
FF80
FF80
ENDCHAR
STARTCHAR C0243
ENCODING 243
SWIDTH 500 0
DWIDTH 12 0
BBX 9 18 1 0
BITMAP
FF80
8180
8180
8180
8180
8180
8180
8180
8180
8180
8180
8180
8180
8180
8180
8180
FF80
FF80
ENDCHAR
STARTCHAR C0244
ENCODING 244
SWIDTH 500 0
DWIDTH 12 0
BBX 9 18 1 0
BITMAP
FF80
8180
8180
8180
8180
8180
8180
8180
8180
8180
8180
8180
8180
8180
8180
8180
FF80
FF80
ENDCHAR
STARTCHAR C0245
ENCODING 245
SWIDTH 500 0
DWIDTH 12 0
BBX 9 18 1 0
BITMAP
FF80
8180
8180
8180
8180
8180
8180
8180
8180
8180
8180
8180
8180
8180
8180
8180
FF80
FF80
ENDCHAR
STARTCHAR C0246
ENCODING 246
SWIDTH 500 0
DWIDTH 12 0
BBX 9 18 1 0
BITMAP
FF80
8180
8180
8180
8180
8180
8180
8180
8180
8180
8180
8180
8180
8180
8180
8180
FF80
FF80
ENDCHAR
STARTCHAR C0247
ENCODING 247
SWIDTH 500 0
DWIDTH 12 0
BBX 9 18 1 0
BITMAP
FF80
8180
8180
8180
8180
8180
8180
8180
8180
8180
8180
8180
8180
8180
8180
8180
FF80
FF80
ENDCHAR
STARTCHAR C0248
ENCODING 248
SWIDTH 500 0
DWIDTH 12 0
BBX 9 18 1 0
BITMAP
FF80
8180
8180
8180
8180
8180
8180
8180
8180
8180
8180
8180
8180
8180
8180
8180
FF80
FF80
ENDCHAR
STARTCHAR C0249
ENCODING 249
SWIDTH 500 0
DWIDTH 12 0
BBX 9 18 1 0
BITMAP
FF80
8180
8180
8180
8180
8180
8180
8180
8180
8180
8180
8180
8180
8180
8180
8180
FF80
FF80
ENDCHAR
STARTCHAR C0250
ENCODING 250
SWIDTH 500 0
DWIDTH 12 0
BBX 9 18 1 0
BITMAP
FF80
8180
8180
8180
8180
8180
8180
8180
8180
8180
8180
8180
8180
8180
8180
8180
FF80
FF80
ENDCHAR
STARTCHAR C0251
ENCODING 251
SWIDTH 500 0
DWIDTH 12 0
BBX 9 18 1 0
BITMAP
FF80
8180
8180
8180
8180
8180
8180
8180
8180
8180
8180
8180
8180
8180
8180
8180
FF80
FF80
ENDCHAR
STARTCHAR C0252
ENCODING 252
SWIDTH 500 0
DWIDTH 12 0
BBX 9 18 1 0
BITMAP
FF80
8180
8180
8180
8180
8180
8180
8180
8180
8180
8180
8180
8180
8180
8180
8180
FF80
FF80
ENDCHAR
STARTCHAR C0253
ENCODING 253
SWIDTH 500 0
DWIDTH 12 0
BBX 9 18 1 0
BITMAP
FF80
8180
8180
8180
8180
8180
8180
8180
8180
8180
8180
8180
8180
8180
8180
8180
FF80
FF80
ENDCHAR
STARTCHAR C0254
ENCODING 254
SWIDTH 500 0
DWIDTH 12 0
BBX 9 18 1 0
BITMAP
FF80
8180
8180
8180
8180
8180
8180
8180
8180
8180
8180
8180
8180
8180
8180
8180
FF80
FF80
ENDCHAR
STARTCHAR C0255
ENCODING 255
SWIDTH 500 0
DWIDTH 12 0
BBX 9 18 1 0
BITMAP
FF80
8180
8180
8180
8180
8180
8180
8180
8180
8180
8180
8180
8180
8180
8180
8180
FF80
FF80
ENDCHAR
ENDFONT
